<?xml version="1.0" encoding="UTF-8"?>
<svg id="Capa_1" xmlns="http://www.w3.org/2000/svg" xmlns:xlink="http://www.w3.org/1999/xlink" version="1.1" viewBox="0 0 150 150">
  <!-- Generator: Adobe Illustrator 29.2.1, SVG Export Plug-In . SVG Version: 2.1.0 Build 116)  -->
  <path d="M75.4,120.2h-.8l-.8-1c.3-3.5-.5-7.9,0-11.2s2.4-1.6,2.6,0c.4,3.4-.3,7.7,0,11.2l-.8,1h-.2Z"/>
  <path d="M75.2,50c4.8-7,14.7-7.6,20.9-1.9,10.5,9.8,2.6,24.5-6.4,32s-10.4,7.6-14.1,8.6c-1.1.3-2.5-.5-3.5-1-11-5.1-25.3-17.2-23-30.8s13.2-16.5,22.2-10.4c9,6.1,2.5,2.3,3.9,3.4h0ZM94.6,50.5c-4.9-5-12.5-4.6-17,.6s-1.6,2.7-2.5,2.7-1.7-1.6-2.4-2.4c-8-9.4-21.3-2.7-21,8.9s13.8,21.7,23.6,25.7c9.2-4.4,20.8-12.5,22.8-23.2.8-4.4-.2-9-3.4-12.2h0Z"/>
  <path d="M24.6,48.2l10.9,3.5c1.4.8.6,2.5-.8,2.5l-10.3-3.3c-1.6-.5-1.4-2.5.2-2.7Z"/>
  <path d="M34.7,77.6c1.4,0,2.2,1.8.8,2.5l-10.6,3.4c-1.7.2-2.4-2-.7-2.6l10.4-3.4h.1Z"/>
  <path d="M125.4,48.2c1.1,0,1.8,1.3,1,2.2s-9.1,2.7-10.9,3.8c-1.7,0-2.4-1.8-.7-2.7l10.6-3.3Z"/>
  <path d="M115,77.6h.7c1.6.3,8.5,2.6,9.9,3.3s1.1,2.8-.5,2.7-9.3-2.8-10.3-3.3c-1.4-.8-1.2-2.4.2-2.7Z"/>
  <path d="M43.3,21.8c.6-.2,1.2,0,1.6.4l6.4,9c.3,1.1-.6,2.1-1.7,1.7s-5.7-7.9-7-9.2c-.5-.7-.2-1.8.6-2h.1Z"/>
  <path d="M105.7,21.8c1.3-.3,2.1.6,1.6,1.9-1.2,1.3-5.9,9-7,9.3s-2.2-.8-1.6-2l6.3-8.7c.2-.2.4-.3.7-.4h0Z"/>
  <path d="M49.7,98.8c1.3-.4,2.2.8,1.6,2l-6.3,8.7c-1.2,1.1-2.9,0-2.3-1.5,1.2-1.2,6-9,7-9.3h0Z"/>
  <path d="M99.3,98.8c1-.3,1.4.3,2,.9,1.1,1.3,5.4,7,6,8.2s-.9,2.7-2.2,1.6l-6.5-9.2c-.2-.6.2-1.4.8-1.5h-.1Z"/>
  <path d="M74.7,11.6c.6-.1,1.1.2,1.4.6v11.8c-.3,1.4-2.3,1.3-2.5-.2-.4-3.4.3-7.7,0-11.2,0-.4.6-.9,1-.9h0Z"/>
</svg>