<?xml version="1.0" encoding="UTF-8"?>
<svg id="Capa_1" xmlns="http://www.w3.org/2000/svg" xmlns:xlink="http://www.w3.org/1999/xlink" version="1.1" viewBox="0 0 150 150">
  <!-- Generator: Adobe Illustrator 29.2.1, SVG Export Plug-In . SVG Version: 2.1.0 Build 116)  -->
  <path d="M102.9,79.5h-21.2v-2.6h20.9v-11.6s-54.7,0-54.7,0v11.6h21.1v2.6h-21.2c-1.3,0-2.5-1.2-2.5-2.5v-12.1c0-1.3,1.1-2.3,2.5-2.3h55.2c1.3,0,2.3,1,2.3,2.3v12.1c0,1.4-1,2.5-2.3,2.5Z"/>
  <path d="M99.2,111.4h-47.6c-1.3,0-2.5-1.2-2.5-2.5v-29.8c0-1.3,1.1-2.3,2.5-2.3h17.4v2.6h-17.2v29.3h47.2v-29.6c0,.1.2.3.3.3v-2.6c1.3,0,2.3,1,2.3,2.3v29.8c0,1.4-1,2.5-2.3,2.5Z"/>
  <path d="M83,111.4h-15.4v-48.8h15.4v48.8h0ZM70.2,108.8h10.1v-43.5h-10.1v43.5Z"/>
  <path d="M87.6,65.1h-10.7c-.9,0-2.1-.8-2.7-2-.5-1.2-.6-3.1,1.7-5.6,1.5-1.6,6.7-6.9,11.6-6.9s4.1,1.1,5.4,3.1c1,1.6,1.3,3.2.8,4.9-1,3.8-5.7,6.3-5.9,6.4h-.3ZM77.1,62.5h9.8c1.2-.7,3.7-2.5,4.3-4.6.2-.9,0-1.8-.5-2.8-.8-1.3-1.8-1.9-3.1-1.9-3.1,0-7.1,3.2-9.7,6-1,1.1-1.4,2-1.3,2.6,0,.3.3.5.5.6Z"/>
  <path d="M73.5,65.1h-11c-.2-.2-4.8-2.7-5.9-6.5-.5-1.7-.2-3.3.8-4.9,1.3-2,3.1-3.1,5.4-3.1,4.9,0,10.1,5.3,11.6,6.9,2.3,2.6,2.2,4.5,1.7,5.6-.6,1.3-1.8,2-2.7,2ZM63.5,62.5h9.8c.1,0,.4-.3.5-.6.1-.6-.3-1.6-1.3-2.6-2.5-2.8-6.6-6-9.7-6s-2.3.6-3.1,1.9c-.6.9-.8,1.8-.5,2.8.6,2.1,3,3.9,4.3,4.6Z"/>
</svg>